<?xml version="1.0" encoding="UTF-8" standalone="no"?>
<!-- Created with Inkscape (http://www.inkscape.org/) -->

<svg
   xmlns:dc="http://purl.org/dc/elements/1.1/"
   xmlns:cc="http://creativecommons.org/ns#"
   xmlns:rdf="http://www.w3.org/1999/02/22-rdf-syntax-ns#"
   xmlns:svg="http://www.w3.org/2000/svg"
   xmlns="http://www.w3.org/2000/svg"
   version="1.1"
   width="878.8576"
   height="225.02625"
   id="svg2"
   xml:space="preserve"><metadata
     id="metadata8"><rdf:RDF><cc:Work
         rdf:about=""><dc:format>image/svg+xml</dc:format><dc:type
           rdf:resource="http://purl.org/dc/dcmitype/StillImage" /><dc:title></dc:title></cc:Work></rdf:RDF></metadata><defs
     id="defs6" /><g
     transform="matrix(1.25,0,0,-1.25,-39.47852,735.76375)"
     id="g10"><path
       d="m 117.1854,526.7876 c -0.687,0 -1.32,0.047 -1.945,-0.008 -5.613,-0.495 -11.222,-1.05 -16.76,-2.117 -8.364,-1.611 -16.54,-3.806 -23.83,-8.446 -4.988,-3.176 -9.094,-7.149 -10.948,-12.964 -2.025,-6.354 -1.085,-11.984 3.774,-16.931 5.944,-6.054 13.174,-9.356 21.368,-10.849 11.238,-2.048 22.453,-0.96 33.674,0.231 1.68,0.178 2.966,0.828 4.134,1.941 2.323,2.214 3.867,4.896 4.957,7.892 0.435,1.196 0.065,1.29 -1.021,1.196 -5.257,-0.453 -10.514,-0.933 -15.781,-1.212 -8.406,-0.444 -16.824,-0.736 -25.183,0.648 -4.335,0.719 -8.463,1.961 -11.826,5.029 -5.816,5.305 -4.639,14.071 2.366,17.665 4.395,2.254 8.931,4.128 13.768,5.164 5.712,1.224 11.452,2.323 17.169,3.53 0.924,0.195 1.969,0.121 2.633,1.148 1.598,2.469 3.077,4.967 3.451,8.083 m 9.619,-7.396 c 0.749,-0.434 1.467,-0.299 2.152,-0.284 5.796,0.118 10.383,2.745 14.166,6.948 4.958,5.507 7.83,12.188 10.574,18.941 1.447,3.561 2.547,7.273 4.395,10.658 0.786,1.439 1.821,2.788 3.789,2.683 1.872,-0.1 2.913,-1.266 3.723,-2.805 2.297,-4.364 4.078,-8.938 5.655,-13.599 2.191,-6.476 3.988,-13.084 6.474,-19.461 1.558,-3.996 5.16,-6.453 9.432,-6.535 4.299,-0.082 7.217,1.904 9.021,6.161 2.253,5.314 4.443,10.654 6.756,15.942 2.225,5.087 3.908,10.421 6.654,15.269 2.084,3.68 3.809,3.709 6.278,0.348 3.719,-5.066 5.889,-10.879 8.026,-16.703 1.915,-5.217 3.734,-10.47 6.464,-15.343 3.622,-6.462 8.685,-11.247 15.832,-13.602 0.642,-0.211 1.294,-0.706 1.949,0.045 1.659,1.9 3.162,3.858 3.268,6.547 0.039,0.976 -0.247,1.578 -1.168,2.013 -2.008,0.948 -3.804,2.239 -5.482,3.694 -5.378,4.664 -8.659,10.731 -11.298,17.173 -2.969,7.248 -5.697,14.596 -8.66,21.848 -1.431,3.5 -3.634,6.524 -7.126,8.25 -5.095,2.518 -10.127,2.275 -13.107,-3.751 -3.007,-6.081 -5.577,-12.32 -7.966,-18.648 -2.065,-5.469 -4.212,-10.899 -6.919,-16.091 -1.442,-2.765 -3.553,-2.932 -5.411,-0.382 -0.452,0.622 -0.771,1.367 -1.036,2.096 -0.705,1.943 -1.402,3.893 -2.005,5.869 -2.2,7.22 -4.311,14.467 -6.555,21.673 -1.376,4.416 -3.304,8.506 -7.457,11.111 -3.785,2.374 -10.267,1.714 -12.629,-3.383 -2.457,-5.304 -4.778,-10.661 -7.023,-16.052 -3.988,-9.573 -8.911,-18.494 -17.029,-25.295 -1.687,-1.414 -3.053,-3.149 -3.737,-5.335 m 22.38,-86.757 c 30.709,0 50.273,2.291 71.015,7.296 8.712,2.102 16.845,5.23 23.589,11.401 10.732,9.822 9.68,23.973 -2.295,32.197 -5.562,3.82 -11.758,5.675 -18.225,6.948 -12.671,2.496 -25.499,2.772 -38.354,2.64 -12.135,-0.124 -24.216,-1.07 -36.267,-2.431 -0.796,-0.09 -1.738,0.087 -2.323,-0.792 -1.774,-2.665 -3.851,-5.133 -5.087,-8.144 -0.554,-1.35 -0.554,-1.816 1.228,-1.707 14.944,0.916 29.855,2.402 44.835,2.682 12.365,0.23 24.673,-0.395 36.815,-2.963 4.834,-1.022 9.216,-3.112 11.859,-7.382 4.512,-7.287 3.921,-14.662 -5.425,-18.03 -3.281,-1.182 -6.587,-2.319 -9.941,-3.272 -30.136,-8.567 -60.893,-9.278 -91.864,-7.131 -12.101,0.839 -24.132,2.326 -36.138,4.029 -0.675,0.096 -1.4,0.319 -1.918,-0.481 -1.161,-1.795 -2.4,-3.538 -3.219,-5.537 -0.587,-1.432 -0.309,-2.104 1.365,-2.43 22.314,-4.351 44.812,-6.847 60.35,-6.893 m 42.236,155.937 c 2.284,-0.936 4.706,-0.459 7.053,-0.601 10.104,-0.614 20.221,-1.007 30.33,-1.553 8.002,-0.432 15.876,-1.639 23.456,-4.363 15.066,-5.414 23.64,-16.439 27.434,-31.656 2.118,-8.495 2.726,-17.158 3.164,-25.85 1.098,-21.821 1.11,-43.629 -1.118,-65.388 -0.764,-7.468 -2.341,-14.781 -5.567,-21.635 -5.454,-11.587 -15.134,-17.781 -27.038,-21.137 -7.794,-2.198 -15.811,-3.011 -23.821,-3.81 -15.044,-1.5 -30.126,-2.51 -45.235,-3.046 -24.325,-0.863 -48.622,-0.305 -72.889,1.595 -11.94,0.936 -23.908,1.66 -35.687,3.967 -8.475,1.659 -16.511,4.488 -23.235,10.182 -8.04,6.806 -11.642,15.975 -13.651,25.965 -1.65,8.206 -2.028,16.544 -2.57,24.866 -0.042,0.647 0.391,1.441 -0.418,1.937 l 0,30.845 c 0.706,2.57 0.718,5.141 0,7.711 l 0,2.571 c 0.893,3.076 0.627,6.262 0.833,9.399 0.487,7.408 1.178,14.776 3.017,22 3.394,13.325 10.411,23.807 23.231,29.75 7.132,3.305 14.703,4.965 22.484,5.666 11.58,1.043 23.202,1.409 34.813,1.971 2.715,0.132 5.493,-0.289 8.156,0.614 l 54.406,0 c 3.284,-0.701 6.569,-0.712 9.853,0 l 2.999,0 z"
       id="path38"
       style="fill:#017cc2;fill-opacity:1;fill-rule:evenodd;stroke:none" /><g
       id="g3915"><path
         d="m 734.6287,423.2104 c -1.78,-0.024 -3.565,0.035 -5.337,-0.099 -1.487,-0.112 -1.928,0.38 -1.915,1.889 0.069,8.759 0.034,17.52 0.034,26.279 0,1.709 0.057,3.421 -0.02,5.127 -0.05,1.135 0.373,1.491 1.478,1.46 1.918,-0.054 3.84,0.022 5.76,0.044 l 0,-34.7 z"
         id="path46"
         style="fill:#047dc3;fill-opacity:1;fill-rule:evenodd;stroke:none" /><path
         d="m 326.7967,515.3267 c 0,-0.673 0,-1.347 0,-2.02 0,-11.28 -0.03,-22.56 0.035,-33.839 0.009,-1.495 -0.356,-1.981 -1.878,-1.888 -2.205,0.136 -4.429,0.121 -6.636,0.003 -1.385,-0.073 -1.647,0.462 -1.644,1.72 0.038,14.421 0.049,28.842 -0.011,43.263 -0.007,1.584 0.56,1.874 1.977,1.848 4.425,-0.08 8.853,-0.078 13.278,0.001 1.285,0.023 1.83,-0.384 2.254,-1.615 3.827,-11.108 7.735,-22.188 11.632,-33.313 0.84,0.411 0.797,1.29 1.032,1.956 3.667,10.411 7.318,20.829 10.901,31.27 0.445,1.297 1.041,1.737 2.42,1.707 4.495,-0.094 8.995,-0.071 13.492,-0.011 1.18,0.016 1.586,-0.289 1.583,-1.533 -0.041,-14.564 -0.049,-29.129 0.008,-43.692 0.006,-1.425 -0.514,-1.64 -1.731,-1.592 -2.139,0.083 -4.291,0.136 -6.422,-0.015 -1.626,-0.114 -2.027,0.41 -2.017,2.009 0.071,10.923 0.037,21.846 0.037,32.769 l 0,2.412 c -0.939,-0.264 -0.88,-1.011 -1.079,-1.552 -4.111,-11.246 -8.237,-22.487 -12.266,-33.763 -0.521,-1.458 -1.196,-1.993 -2.718,-1.864 -2.683,0.228 -6.006,-1.024 -7.896,0.46 -1.776,1.394 -2.102,4.666 -3.004,7.133 -3.498,9.563 -6.972,19.134 -10.454,28.702 -0.184,0.504 -0.374,1.006 -0.561,1.509 -0.111,-0.022 -0.222,-0.044 -0.332,-0.065"
         id="path58"
         style="fill:#047dc3;fill-opacity:1;fill-rule:evenodd;stroke:none" /><path
         d="m 720.5564,490.3921 c 0,10.559 0.049,21.118 -0.047,31.676 -0.016,1.868 0.412,2.523 2.338,2.358 2.126,-0.182 4.28,-0.09 6.418,-0.022 1.118,0.035 1.465,-0.351 1.463,-1.47 -0.031,-14.627 -0.032,-29.256 0.001,-43.884 0.003,-1.124 -0.334,-1.479 -1.455,-1.458 -3.281,0.063 -6.567,0.088 -9.846,-0.011 -1.265,-0.037 -1.886,0.448 -2.479,1.499 -5.786,10.235 -11.623,20.439 -17.449,30.65 -0.414,0.727 -0.846,1.444 -1.642,2.116 l 0,-1.993 c 0,-10.132 -0.033,-20.266 0.036,-30.398 0.011,-1.519 -0.412,-1.957 -1.903,-1.874 -2.277,0.126 -4.567,0.084 -6.848,0.011 -1.112,-0.035 -1.475,0.319 -1.473,1.446 0.031,14.628 0.03,29.256 0.003,43.884 -0.003,1.095 0.318,1.504 1.456,1.484 3.424,-0.06 6.853,-0.094 10.274,0.015 1.291,0.042 1.723,-0.689 2.225,-1.574 5.832,-10.287 11.673,-20.568 17.514,-30.851 0.335,-0.59 0.69,-1.169 1.036,-1.754 0.126,0.05 0.252,0.1 0.378,0.15"
         id="path62"
         style="fill:#047dc3;fill-opacity:1;fill-rule:evenodd;stroke:none" /><path
         d="m 638.6912,500.9204 c -0.164,-1.631 0.143,-3.25 0.462,-4.855 1.438,-7.218 6.4,-11.557 13.412,-11.778 7.422,-0.234 12.404,3.467 14.435,10.73 1.039,3.715 1.089,7.47 0.231,11.21 -1.658,7.219 -6.878,11.531 -13.898,11.586 -7.057,0.055 -12.269,-4.137 -14.061,-11.363 -0.446,-1.799 -0.732,-3.634 -0.581,-5.53 m 14.514,24.322 c 5.072,0.047 9.974,-0.777 14.411,-3.336 8.48,-4.89 11.627,-12.722 11.161,-22.023 -0.703,-14.039 -9.546,-22.484 -23.612,-23.095 -5.495,-0.238 -10.848,0.406 -15.796,2.964 -8.271,4.275 -12.761,13.528 -11.683,23.839 1.47,14.055 10.422,21.65 25.519,21.651"
         id="path66"
         style="fill:#047dc3;fill-opacity:1;fill-rule:evenodd;stroke:none" /><path
         d="m 450.8475,510.875 c 0,-1.712 -0.001,-3.425 10e-4,-5.137 10e-4,-0.588 -0.005,-1.192 0.835,-1.182 3.547,0.041 7.155,-0.396 10.493,1.301 2.233,1.136 3.098,3.043 2.981,5.458 -0.113,2.315 -1.331,3.862 -3.458,4.681 -1.885,0.727 -3.875,0.932 -5.877,0.954 -4.979,0.054 -4.979,0.042 -4.979,-5.005 0,-0.357 0,-0.714 0.004,-1.07 m 28.518,-33.26 c -3.709,0 -7.063,0.053 -10.413,-0.031 -1.137,-0.028 -1.623,0.439 -2.025,1.399 -1.788,4.27 -3.622,8.522 -5.46,12.771 -1.98,4.577 -4.821,6.054 -9.686,5.224 -1.281,-0.218 -0.917,-1.072 -0.921,-1.757 -0.029,-5.209 -0.078,-10.421 0.021,-15.629 0.03,-1.59 -0.372,-2.133 -2.011,-2.015 -2.129,0.153 -4.288,0.158 -6.417,0 -1.752,-0.131 -2.267,0.356 -2.252,2.183 0.09,11.704 0.045,23.409 0.045,35.114 0,2.712 0.031,5.424 -0.014,8.135 -0.017,0.965 0.213,1.423 1.295,1.39 7.482,-0.228 14.985,0.467 22.448,-0.507 1.335,-0.175 2.673,-0.464 3.959,-0.863 5.52,-1.708 8.267,-5.403 8.305,-11.052 0.033,-4.98 -2.915,-8.835 -8.089,-10.576 -0.446,-0.151 -0.894,-0.292 -1.688,-0.55 3.127,-1.68 4.354,-4.456 5.605,-7.244 2.355,-5.249 4.773,-10.469 7.298,-15.992"
         id="path70"
         style="fill:#047dc3;fill-opacity:1;fill-rule:evenodd;stroke:none" /><path
         d="m 618.1766,500.75 c 0,-7.067 -0.058,-14.136 0.043,-21.202 0.024,-1.654 -0.471,-2.06 -2.034,-1.968 -2.277,0.134 -4.571,0.127 -6.849,0.001 -1.447,-0.08 -1.802,0.422 -1.785,1.799 0.068,5.567 -0.025,11.137 0.062,16.703 0.025,1.567 -0.361,2.094 -2.011,2.064 -5.638,-0.104 -11.28,-0.094 -16.917,-0.003 -1.522,0.024 -1.909,-0.43 -1.886,-1.913 0.086,-5.495 -0.057,-10.995 0.084,-16.488 0.048,-1.862 -0.536,-2.282 -2.262,-2.166 -2.273,0.152 -4.567,0.091 -6.849,0.015 -1.16,-0.038 -1.617,0.248 -1.613,1.521 0.041,14.563 0.038,29.126 0.005,43.689 -0.003,1.18 0.293,1.65 1.546,1.607 2.496,-0.084 5,-0.101 7.494,0.006 1.342,0.058 1.678,-0.376 1.66,-1.683 -0.075,-5.139 0.016,-10.28 -0.062,-15.419 -0.021,-1.38 0.329,-1.831 1.767,-1.811 5.781,0.08 11.564,0.07 17.345,0.006 1.336,-0.015 1.703,0.436 1.689,1.72 -0.059,5.068 0.048,10.138 -0.065,15.204 -0.037,1.663 0.502,2.074 2.065,1.985 2.277,-0.128 4.572,-0.122 6.85,0 1.463,0.078 1.761,-0.478 1.75,-1.823 -0.057,-7.281 -0.027,-14.563 -0.027,-21.844"
         id="path74"
         style="fill:#047dc3;fill-opacity:1;fill-rule:evenodd;stroke:none" /><path
         d="m 507.4334,515.0039 c -2.412,-6.181 -4.635,-11.875 -6.854,-17.571 -0.285,-0.731 -0.775,-1.572 0.664,-1.574 4.468,-0.004 8.937,-0.001 13.665,-0.001 -2.51,6.428 -4.907,12.567 -7.475,19.146 m -26.066,-37.387 c 2.499,5.76 4.9,11.296 7.301,16.832 4.053,9.343 8.141,18.672 12.125,28.044 0.626,1.473 1.376,2.027 2.993,1.934 2.704,-0.155 5.424,-0.098 8.135,-0.017 1.227,0.036 1.902,-0.301 2.422,-1.502 6.282,-14.509 12.604,-29.003 18.985,-43.469 0.713,-1.619 0.347,-1.907 -1.255,-1.851 -2.709,0.096 -5.427,0.089 -8.137,-0.002 -1.179,-0.04 -1.779,0.317 -2.205,1.439 -1.012,2.662 -2.206,5.253 -3.241,7.907 -0.386,0.989 -0.866,1.432 -2.006,1.421 -6.068,-0.06 -12.137,-0.059 -18.204,-0.002 -1.137,0.011 -1.596,-0.423 -1.989,-1.428 -1.061,-2.719 -2.255,-5.386 -3.401,-8.072 -0.278,-0.652 -0.492,-1.272 -1.459,-1.256 -3.264,0.056 -6.529,0.022 -10.064,0.022"
         id="path78"
         style="fill:#047dc3;fill-opacity:1;fill-rule:evenodd;stroke:none" /><path
         d="m 407.8865,514.9941 c -2.464,-6.319 -4.766,-12.27 -7.116,-18.201 -0.47,-1.187 0.337,-0.976 0.929,-0.978 4.062,-0.015 8.123,0.009 12.183,-0.018 1.064,-0.008 1.43,0.277 0.995,1.373 -2.297,5.793 -4.554,11.601 -6.991,17.824 m 26.3,-37.379 c -3.442,0 -6.865,0.041 -10.287,-0.025 -1.027,-0.019 -1.309,0.525 -1.625,1.306 -1.095,2.707 -2.309,5.367 -3.349,8.094 -0.4,1.05 -0.945,1.366 -2.031,1.358 -5.997,-0.049 -11.994,-0.063 -17.991,0.009 -1.211,0.014 -1.78,-0.399 -2.207,-1.476 -1.078,-2.713 -2.301,-5.368 -3.378,-8.08 -0.342,-0.86 -0.763,-1.221 -1.709,-1.206 -3.137,0.052 -6.275,0.02 -9.377,0.02 -0.352,0.804 0.167,1.329 0.405,1.879 6.227,14.379 12.493,28.74 18.688,43.132 0.559,1.299 1.167,1.867 2.651,1.798 2.921,-0.135 5.852,-0.063 8.779,-0.026 0.865,0.012 1.439,-0.154 1.827,-1.05 6.551,-15.089 13.135,-30.165 19.705,-45.245 0.024,-0.052 -0.025,-0.135 -0.101,-0.488"
         id="path82"
         style="fill:#047dc3;fill-opacity:1;fill-rule:evenodd;stroke:none" /><path
         d="m 549.7752,524.3843 c 5.997,0 11.994,-0.039 17.991,0.029 1.386,0.016 2.149,-0.185 1.951,-1.808 -0.22,-1.819 0.774,-4.253 -0.418,-5.317 -1.011,-0.903 -3.384,-0.307 -5.156,-0.325 -2.498,-0.026 -5.001,-0.094 -7.494,0.026 -1.527,0.073 -1.913,-0.45 -1.906,-1.933 0.055,-11.708 -0.01,-23.417 0.073,-35.125 0.013,-1.808 -0.315,-2.556 -2.294,-2.362 -2.051,0.202 -4.148,0.182 -6.204,0.005 -1.879,-0.162 -2.191,0.571 -2.181,2.279 0.076,11.494 -0.025,22.989 0.097,34.483 0.023,2.208 -0.575,2.786 -2.725,2.672 -3.559,-0.189 -7.137,-0.015 -10.706,-0.072 -1.102,-0.018 -1.436,0.305 -1.48,1.439 -0.227,6.01 -0.262,6.009 5.674,6.009 l 14.778,0 z"
         id="path86"
         style="fill:#047dc3;fill-opacity:1;fill-rule:evenodd;stroke:none" /><path
         d="m 671.8084,422.3589 c -3.374,-0.078 -6.507,0.576 -9.638,1.305 -1.047,0.244 -1.389,0.736 -1.256,1.79 0.242,1.908 -0.297,4.426 0.732,5.595 1.304,1.479 3.215,-0.804 4.977,-1.106 2.765,-0.475 5.456,-1.039 8.202,-0.034 2.113,0.774 3.852,1.894 4.155,4.37 0.309,2.529 -1.129,4.082 -3.158,5.072 -2.747,1.339 -5.645,2.37 -8.395,3.705 -6.139,2.979 -8.425,7.773 -6.948,14.407 1.223,5.491 5.075,8.235 10.246,9.337 4.542,0.969 9.066,0.445 13.549,-0.66 1.131,-0.279 1.514,-0.701 1.28,-1.905 -0.339,-1.744 0.151,-4.139 -0.839,-5.132 -1.097,-1.101 -3.112,0.73 -4.823,0.885 -1.99,0.182 -3.977,0.45 -5.963,0.067 -2.487,-0.481 -4.161,-2.186 -4.511,-4.514 -0.377,-2.503 0.366,-4.005 3.008,-5.267 2.758,-1.318 5.678,-2.299 8.434,-3.621 5.98,-2.868 8.253,-7.448 7.115,-13.982 -0.903,-5.195 -4.945,-8.833 -10.985,-9.875 -1.759,-0.303 -3.527,-0.528 -5.182,-0.437"
         id="path90"
         style="fill:#047dc3;fill-opacity:1;fill-rule:evenodd;stroke:none" /><path
         d="m 627.1492,548.043 c 2.866,-1.352 5.608,-2.303 8.546,-2.57 2.498,-0.228 4.849,0.209 6.891,1.713 2.687,1.979 2.703,5.405 0.081,7.461 -1.247,0.977 -2.696,1.586 -4.141,2.193 -1.772,0.745 -3.586,1.396 -5.315,2.227 -6.185,2.976 -8.348,7.081 -7.379,13.833 0.733,5.106 4.767,8.974 10.571,10.058 4.498,0.84 8.933,0.391 13.351,-0.684 1.179,-0.286 1.502,-0.824 1.345,-1.933 -0.24,-1.691 0.165,-3.878 -0.755,-4.968 -1.177,-1.396 -2.976,0.59 -4.599,0.685 -2.122,0.124 -4.211,0.673 -6.366,0.123 -2.535,-0.648 -4.252,-2.387 -4.54,-4.787 -0.265,-2.224 0.598,-3.805 3.155,-5.026 2.692,-1.287 5.548,-2.233 8.243,-3.515 7.155,-3.404 9.694,-10.97 5.992,-17.731 -2.014,-3.679 -5.468,-5.312 -9.348,-6.122 -5.207,-1.087 -10.356,-0.487 -15.447,0.863 -0.775,0.205 -1.205,0.525 -1.059,1.486 0.317,2.11 0.5,4.24 0.774,6.694"
         id="path94"
         style="fill:#047dc3;fill-opacity:1;fill-rule:evenodd;stroke:none" /><path
         d="m 425.826,564.2212 c 0,-7.745 -0.047,-15.378 0.039,-23.01 0.018,-1.59 -0.382,-2.045 -2,-2.02 -4.779,0.074 -4.78,-0.002 -4.78,4.797 0,9.346 0.037,18.691 -0.036,28.037 -0.012,1.574 0.35,2.155 2.002,2.018 2.194,-0.183 4.829,0.599 6.493,-0.373 1.561,-0.911 2.121,-3.558 3.094,-5.455 3.248,-6.332 6.483,-12.671 9.798,-19.154 0.768,0.723 0.48,1.53 0.482,2.216 0.025,6.921 0.066,13.841 -0.023,20.76 -0.02,1.598 0.395,2.043 2.014,2.015 4.765,-0.084 4.766,-0.007 4.766,-4.761 0,-9.275 -0.044,-18.549 0.04,-27.823 0.015,-1.706 -0.385,-2.075 -2.158,-2.332 -4.971,-0.722 -7.627,1.171 -9.567,5.813 -2.628,6.287 -6.102,12.221 -9.225,18.301 -0.179,0.349 -0.209,0.852 -0.939,0.971"
         id="path98"
         style="fill:#047dc3;fill-opacity:1;fill-rule:evenodd;stroke:none" /><path
         d="m 540.1385,448.0713 c 0,-7.633 -0.061,-15.267 0.045,-22.899 0.024,-1.748 -0.532,-2.1 -2.147,-2.072 -4.689,0.083 -4.69,0.016 -4.69,4.659 0,9.275 0.041,18.551 -0.037,27.826 -0.015,1.689 0.392,2.082 2.161,2.357 5.101,0.795 7.734,-1.21 9.704,-5.939 2.727,-6.545 6.343,-12.721 9.624,-19.146 0.619,0.497 0.382,1.092 0.383,1.583 0.019,7.134 0.061,14.27 -0.024,21.404 -0.019,1.583 0.377,2.066 2.008,2.043 4.82,-0.066 4.821,0.01 4.821,-4.724 0,-9.346 -0.037,-18.694 0.037,-28.039 0.011,-1.559 -0.405,-1.822 -1.957,-2.074 -5.047,-0.823 -7.83,1.08 -9.777,5.831 -2.367,5.778 -5.583,11.208 -8.436,16.786 -0.441,0.86 -0.91,1.705 -1.366,2.557 -0.117,-0.05 -0.233,-0.102 -0.349,-0.153"
         id="path102"
         style="fill:#047dc3;fill-opacity:1;fill-rule:evenodd;stroke:none" /><path
         d="m 597.9676,548.166 c 0,8.158 0.086,15.696 -0.055,23.229 -0.04,2.122 0.433,2.779 2.638,2.672 4.202,-0.202 4.209,-0.057 4.209,-4.286 0,-9.496 -0.048,-18.992 0.043,-28.487 0.017,-1.744 -0.61,-1.874 -2.148,-2.143 -5.115,-0.893 -7.759,1.223 -9.688,5.92 -2.4,5.846 -5.644,11.346 -8.529,16.993 -0.373,0.731 -0.784,1.443 -1.527,2.083 l 0,-11.449 c 0,-3.998 -0.032,-7.996 0.021,-11.994 0.015,-1.098 -0.312,-1.449 -1.443,-1.499 -5.371,-0.239 -5.37,-0.276 -5.37,5.008 0,9.282 0.043,18.563 -0.041,27.845 -0.013,1.609 0.486,1.772 1.984,2.036 5.214,0.922 7.854,-1.31 9.84,-6.03 2.672,-6.354 6.148,-12.369 9.282,-18.528 0.144,-0.286 0.316,-0.557 0.784,-1.37"
         id="path106"
         style="fill:#047dc3;fill-opacity:1;fill-rule:evenodd;stroke:none" /><path
         d="m 391.4173,448.042 c 0,-7.47 -0.088,-14.942 0.056,-22.41 0.041,-2.115 -0.562,-2.622 -2.597,-2.544 -4.247,0.161 -4.251,0.046 -4.251,4.211 0,9.56 0.033,19.121 -0.034,28.681 -0.01,1.495 0.45,1.723 1.883,1.939 4.92,0.742 7.822,-0.873 9.832,-5.709 2.796,-6.728 6.494,-13.081 10.167,-19.533 0,2.164 0.001,4.327 0.001,6.491 0,5.636 0.044,11.273 -0.032,16.908 -0.019,1.39 0.353,1.805 1.773,1.806 5.05,0.002 5.05,0.058 5.05,-4.95 0,-9.275 -0.042,-18.551 0.04,-27.825 0.014,-1.628 -0.436,-2.122 -2.034,-1.999 -2.195,0.168 -4.856,-0.612 -6.484,0.38 -1.618,0.986 -2.23,3.65 -3.235,5.603 -3.255,6.326 -6.488,12.663 -9.729,18.996 -0.135,-0.015 -0.27,-0.03 -0.406,-0.045"
         id="path110"
         style="fill:#047dc3;fill-opacity:1;fill-rule:evenodd;stroke:none" /><path
         d="m 334.1751,422.3232 c -4.076,0.079 -7.455,0.51 -10.72,1.655 -6.794,2.384 -11.193,6.989 -12.64,14.088 -1.492,7.314 -0.944,14.453 3.596,20.653 5.37,7.331 13.23,8.834 21.716,8.441 0.638,-0.029 1.273,-0.159 1.91,-0.237 5.723,-0.705 6.71,-2.199 5.296,-7.809 -0.255,-1.011 -0.638,-0.853 -1.324,-0.521 -2.212,1.072 -4.563,1.514 -7.017,1.662 -10.325,0.623 -16.111,-7.298 -15.605,-16.374 0.604,-10.852 8.399,-16.359 19.716,-14.103 0.559,0.111 1.116,0.232 1.669,0.37 2.62,0.659 2.694,0.666 2.858,-2.137 0.307,-5.256 1.235,-4.008 -3.921,-5.129 -2.003,-0.435 -4.086,-0.676 -5.534,-0.559"
         id="path114"
         style="fill:#047dc3;fill-opacity:1;fill-rule:evenodd;stroke:none" /><path
         d="m 344.6746,558.8882 c 0.016,8.822 1.887,15.534 8.226,19.994 7.478,5.261 15.789,5.516 24.35,3.084 0.884,-0.251 1.049,-0.782 0.96,-1.587 -0.166,-1.487 -0.382,-2.98 -0.387,-4.471 -0.004,-1.442 -0.328,-1.695 -1.705,-1.067 -3.742,1.706 -7.691,2.134 -11.687,1.11 -7.211,-1.848 -11.681,-9.304 -10.519,-17.364 1.443,-10.003 8.896,-14.846 19.56,-12.71 0.488,0.098 0.976,0.203 1.461,0.317 3.149,0.734 3.149,0.735 3.262,-2.629 0.125,-3.756 0.137,-3.825 -3.569,-4.466 -7.434,-1.284 -14.7,-0.89 -21.265,3.219 -6.584,4.122 -8.735,10.558 -8.687,16.57"
         id="path118"
         style="fill:#047dc3;fill-opacity:1;fill-rule:evenodd;stroke:none" /><path
         d="m 498.1551,556.7842 c 0,-3.494 -0.009,-6.988 0.01,-10.482 0.003,-0.649 -0.267,-1.394 0.916,-1.509 10.947,-1.068 15.928,7.379 13.635,15.453 -1.925,6.779 -7.754,8.632 -13.752,8.195 -1.06,-0.077 -0.796,-0.809 -0.799,-1.388 -0.019,-3.423 -0.009,-6.846 -0.01,-10.269 m -7.099,-0.086 c -0.001,5.211 -0.011,10.422 0.012,15.633 0.003,0.696 -0.353,1.704 0.974,1.674 5.196,-0.12 10.413,0.36 15.576,-0.689 10.386,-2.11 13.263,-9.362 12.994,-17.738 -0.131,-4.066 -1.052,-7.919 -3.958,-11.02 -3.453,-3.685 -7.975,-4.874 -12.755,-5.176 -3.769,-0.239 -7.563,-0.063 -11.344,-0.175 -1.309,-0.039 -1.525,0.519 -1.517,1.644 0.04,5.282 0.018,10.564 0.018,15.847"
         id="path122"
         style="fill:#047dc3;fill-opacity:1;fill-rule:evenodd;stroke:none" /><path
         d="m 463.6961,440.3413 c 0,-3.352 -0.013,-6.703 0.012,-10.054 0.005,-0.644 -0.254,-1.374 0.874,-1.591 5.15,-0.987 10.796,1.61 12.951,6.247 2.043,4.395 1.82,8.766 -1.017,12.763 -2.876,4.052 -7.137,4.836 -11.769,4.572 -1.254,-0.072 -1.041,-0.924 -1.044,-1.668 -0.015,-3.424 -0.007,-6.846 -0.007,-10.269 m -7.1,0.045 c 0,5.209 0.061,10.419 -0.038,15.627 -0.029,1.549 0.467,1.935 1.933,1.859 4.056,-0.208 8.118,0.153 12.183,-0.286 12.565,-1.357 16.56,-9.662 15.268,-20.31 -1.038,-8.561 -6.308,-13.173 -15.709,-13.952 -4.113,-0.341 -8.272,-0.098 -12.407,-0.209 -1.375,-0.037 -1.235,0.77 -1.234,1.644 0.008,5.209 0.004,10.418 0.004,15.627"
         id="path126"
         style="fill:#047dc3;fill-opacity:1;fill-rule:evenodd;stroke:none" /><path
         d="m 590.3309,440.5381 0,-7.902 c 0,-4.027 0,-4.027 4.088,-3.919 6.958,0.182 12.005,6.179 11.109,13.097 -0.908,7.011 -6.029,11.209 -14.212,10.469 -1.116,-0.101 -0.98,-0.796 -0.982,-1.494 -0.006,-3.417 -0.003,-6.834 -0.003,-10.251 m -6.929,-0.038 c 0,5.135 0.074,10.271 -0.043,15.404 -0.037,1.656 0.477,2.053 2.041,1.972 4.124,-0.213 8.261,0.19 12.388,-0.321 10.124,-1.253 15.384,-7.25 15.172,-17.412 -0.214,-10.31 -5.738,-16.127 -16.263,-16.85 -3.976,-0.273 -7.984,-0.072 -11.975,-0.18 -1.262,-0.034 -1.339,0.573 -1.334,1.554 0.03,5.277 0.014,10.556 0.014,15.833"
         id="path130"
         style="fill:#047dc3;fill-opacity:1;fill-rule:evenodd;stroke:none" /><path
         d="m 723.1795,457.8457 c -4.518,-5.172 -8.62,-9.995 -12.884,-14.673 -1.218,-1.337 -1.17,-2.126 -0.049,-3.46 4.082,-4.856 8.034,-9.821 12.031,-14.749 0.389,-0.48 0.755,-0.982 1.396,-1.819 -3.109,0 -5.846,0.002 -8.583,-10e-4 -0.973,-0.001 -1.263,0.842 -1.724,1.431 -3.636,4.659 -7.25,9.335 -11.294,14.55 l 0,-6.841 c 0,-2.567 -0.048,-5.135 0.022,-7.7 0.03,-1.101 -0.279,-1.623 -1.426,-1.446 -0.07,0.01 -0.143,0.002 -0.214,0 -5.482,-0.14 -5.482,-0.14 -5.482,5.334 0,9.128 0.038,18.257 -0.035,27.385 -0.013,1.589 0.396,2.054 2.02,2.031 5.114,-0.069 5.115,0.003 5.115,-5.069 l 0,-9.664 c 3.478,4.128 6.757,7.75 9.71,11.622 1.758,2.307 3.624,3.586 6.603,3.107 1.379,-0.222 2.822,-0.038 4.794,-0.038"
         id="path134"
         style="fill:#047dc3;fill-opacity:1;fill-rule:evenodd;stroke:none" /><path
         d="m 667.6131,554.4995 c 0,-4.406 -0.055,-8.813 0.03,-13.216 0.03,-1.496 -0.235,-2.121 -1.955,-2.097 -5.174,0.071 -5.175,-0.014 -5.175,5.215 0,9.207 0.038,18.414 -0.036,27.62 -0.012,1.542 0.288,2.061 1.956,2.034 5.179,-0.087 5.18,-0.006 5.18,-5.238 l 0,-8.838 c 0.97,0.036 1.241,0.781 1.659,1.272 3.229,3.81 6.453,7.623 9.62,11.483 0.74,0.901 1.488,1.357 2.696,1.302 2.192,-0.1 4.394,-0.028 6.575,-0.028 0.254,-0.841 -0.404,-1.114 -0.735,-1.496 -3.917,-4.535 -7.825,-9.079 -11.829,-13.535 -0.965,-1.073 -0.965,-1.719 -0.05,-2.822 4.501,-5.434 8.907,-10.946 13.706,-16.874 -3.28,0 -6.136,-0.04 -8.99,0.028 -0.684,0.017 -0.925,0.826 -1.308,1.316 -3.628,4.66 -7.24,9.331 -10.858,13.998 -0.162,-0.041 -0.324,-0.083 -0.486,-0.124"
         id="path138"
         style="fill:#047dc3;fill-opacity:1;fill-rule:evenodd;stroke:none" /><path
         d="m 469.2293,566.1821 c -0.153,0.012 -0.307,0.025 -0.46,0.038 -1.461,-4.133 -2.922,-8.267 -4.382,-12.4 -0.285,-0.805 -0.056,-1.181 0.858,-1.17 2.491,0.032 4.982,0.035 7.472,-10e-4 1.115,-0.016 1.118,0.462 0.811,1.322 -1.454,4.063 -2.87,8.139 -4.299,12.211 m 17.402,-26.947 c -2.374,0 -4.568,0.019 -6.762,-0.011 -0.665,-0.009 -1.081,0.224 -1.3,0.844 -0.142,0.404 -0.293,0.803 -0.456,1.198 -0.784,1.895 -0.835,4.557 -2.438,5.515 -1.486,0.887 -3.876,0.276 -5.868,0.296 -1.996,0.021 -4.003,-0.11 -5.988,0.042 -1.511,0.116 -2.157,-0.474 -2.564,-1.844 -0.482,-1.633 -1.228,-3.186 -1.769,-4.805 -0.324,-0.969 -0.877,-1.308 -1.879,-1.255 -1.423,0.074 -2.858,0.103 -4.277,-0.004 -1.632,-0.122 -1.529,0.514 -1.054,1.721 4.14,10.53 8.251,21.071 12.312,31.631 0.43,1.116 0.963,1.548 2.165,1.472 2.058,-0.132 4.497,0.564 6.085,-0.324 1.601,-0.895 1.753,-3.56 2.508,-5.457 3.575,-8.991 7.088,-18.008 10.616,-27.018 0.229,-0.584 0.4,-1.19 0.669,-2.001"
         id="path142"
         style="fill:#047dc3;fill-opacity:1;fill-rule:evenodd;stroke:none" /><path
         d="m 559.3758,552.6592 c -1.659,4.74 -3.234,9.24 -4.98,14.227 -1.646,-4.701 -3.099,-8.928 -4.614,-13.133 -0.45,-1.253 0.351,-1.091 1.062,-1.092 2.708,-0.005 5.417,-0.002 8.532,-0.002 m -22.347,-13.426 c 2.953,7.572 5.795,14.852 8.631,22.134 1.473,3.781 2.951,7.56 4.387,11.354 0.338,0.893 0.759,1.371 1.828,1.314 2.134,-0.114 4.642,0.61 6.311,-0.287 1.692,-0.91 1.819,-3.677 2.598,-5.641 3.546,-8.929 7.014,-17.89 10.605,-26.801 0.701,-1.74 0.403,-2.132 -1.45,-2.11 -5.611,0.067 -5.71,-0.033 -7.542,5.333 -0.684,2.009 -1.608,2.765 -3.775,2.61 -3.123,-0.224 -6.275,-0.121 -9.412,-0.027 -1.332,0.039 -2.098,-0.29 -2.492,-1.654 -0.453,-1.567 -1.249,-3.035 -1.689,-4.604 -0.387,-1.381 -1.152,-1.732 -2.482,-1.647 -1.701,0.108 -3.414,0.026 -5.518,0.026"
         id="path146"
         style="fill:#047dc3;fill-opacity:1;fill-rule:evenodd;stroke:none" /><path
         d="m 397.3611,566.8936 c -1.57,-4.49 -2.921,-8.537 -4.415,-12.532 -0.561,-1.5 -0.162,-1.792 1.293,-1.729 2.277,0.099 4.561,0.032 6.842,0.024 0.727,-0.002 1.281,0.02 0.912,1.049 -1.507,4.207 -2.966,8.431 -4.632,13.188 m 17.655,-27.658 c -2.369,0 -4.57,0.012 -6.771,-0.008 -0.653,-0.005 -1.093,0.208 -1.297,0.853 -0.107,0.338 -0.249,0.667 -0.384,0.996 -0.801,1.964 -0.888,4.711 -2.52,5.703 -1.525,0.926 -4.012,0.265 -6.076,0.302 -0.071,10e-4 -0.143,10e-4 -0.213,0 -2.419,-0.042 -5.269,0.691 -7.132,-0.347 -1.781,-0.993 -1.934,-4.078 -2.762,-6.256 -0.369,-0.974 -0.87,-1.324 -1.875,-1.263 -1.208,0.074 -2.434,0.119 -3.633,-0.005 -1.922,-0.199 -2.299,0.317 -1.558,2.178 3.816,9.581 7.515,19.209 11.264,28.817 1.486,3.807 1.496,3.803 5.674,3.803 3.732,0 3.738,0.002 5.152,-3.596 3.825,-9.733 7.644,-19.468 11.459,-29.204 0.229,-0.586 0.407,-1.19 0.672,-1.973"
         id="path150"
         style="fill:#047dc3;fill-opacity:1;fill-rule:evenodd;stroke:none" /><path
         d="m 429.5535,436.6138 9.919,0 c -1.635,4.661 -3.225,9.193 -4.959,14.136 -1.726,-4.918 -3.294,-9.388 -4.96,-14.136 m -12.339,-13.332 c 4.419,11.323 8.77,22.45 13.094,33.587 0.275,0.709 0.654,1.059 1.409,0.978 0.142,-0.015 0.286,-0.005 0.428,-10e-4 6.392,0.194 6.4,0.197 8.778,-5.846 3.519,-8.941 6.985,-17.902 10.569,-26.816 0.72,-1.79 0.297,-2.1 -1.478,-2.081 -5.599,0.061 -5.71,-0.035 -7.531,5.372 -0.693,2.058 -1.677,2.702 -3.798,2.565 -3.196,-0.207 -6.419,-0.114 -9.626,-0.023 -1.22,0.035 -1.882,-0.348 -2.114,-1.524 -0.04,-0.205 -0.176,-0.389 -0.252,-0.588 -2.4,-6.238 -2.4,-6.238 -9.479,-5.623"
         id="path154"
         style="fill:#047dc3;fill-opacity:1;fill-rule:evenodd;stroke:none" /><path
         d="m 367.8406,436.6426 c -1.655,4.731 -3.215,9.19 -4.94,14.119 -1.729,-4.934 -3.311,-9.449 -4.949,-14.119 l 9.889,0 z m -22.22,-13.348 c 4.384,11.277 8.695,22.35 12.985,33.432 0.332,0.855 0.824,1.287 1.755,1.12 0.069,-0.012 0.143,-0.003 0.214,0 6.399,0.159 6.378,0.151 8.744,-5.892 3.502,-8.952 7.014,-17.9 10.583,-26.825 0.606,-1.517 0.578,-2.056 -1.325,-2.036 -5.739,0.061 -5.828,-0.049 -7.713,5.403 -0.657,1.9 -1.51,2.677 -3.597,2.543 -3.199,-0.205 -6.423,-0.129 -9.632,-0.018 -1.396,0.048 -2.145,-0.415 -2.418,-1.742 -0.029,-0.138 -0.088,-0.271 -0.139,-0.405 -2.376,-6.274 -2.376,-6.274 -9.457,-5.58"
         id="path158"
         style="fill:#047dc3;fill-opacity:1;fill-rule:evenodd;stroke:none" /><path
         d="m 619.1463,440.4687 c 0,5.138 0.066,10.277 -0.039,15.413 -0.033,1.635 0.468,2.03 2.053,2.003 5.564,-0.1 11.132,-0.086 16.697,-0.007 1.464,0.021 1.969,-0.35 1.948,-1.885 -0.051,-3.723 0.028,-3.724 -3.711,-3.724 -2.711,0 -5.425,-0.052 -8.134,0.024 -1.221,0.033 -1.846,-0.18 -1.745,-1.609 0.127,-1.775 0.108,-3.57 0.005,-5.348 -0.074,-1.295 0.475,-1.535 1.621,-1.512 3.068,0.064 6.138,-0.026 9.204,0.046 1.21,0.028 1.569,-0.351 1.589,-1.572 0.067,-4.03 0.119,-4.029 -3.829,-4.029 -2.354,0 -4.71,-0.037 -7.063,0.017 -1.024,0.023 -1.57,-0.15 -1.522,-1.372 0.091,-2.28 0.092,-4.569 0,-6.849 -0.049,-1.228 0.51,-1.38 1.527,-1.367 3.424,0.045 6.852,-0.059 10.274,0.051 1.526,0.05 1.926,-0.443 1.902,-1.926 -0.057,-3.684 0.016,-3.685 -3.737,-3.685 -4.995,0 -9.992,0.084 -14.984,-0.045 -1.772,-0.046 -2.119,0.564 -2.09,2.177 0.093,5.065 0.034,10.133 0.034,15.199"
         id="path162"
         style="fill:#047dc3;fill-opacity:1;fill-rule:evenodd;stroke:none" /><path
         d="m 506.2205,440.4844 c 0,5.136 0.071,10.274 -0.042,15.408 -0.036,1.654 0.488,2.016 2.051,1.989 5.563,-0.092 11.129,-0.088 16.692,-10e-4 1.518,0.024 1.929,-0.434 1.905,-1.923 -0.057,-3.688 0.016,-3.688 -3.731,-3.688 -2.711,0 -5.425,-0.079 -8.131,0.031 -1.45,0.059 -1.864,-0.454 -1.769,-1.831 0.106,-1.562 0.147,-3.15 -0.009,-4.703 -0.173,-1.725 0.58,-2.008 2.087,-1.952 2.921,0.108 5.85,-0.023 8.772,0.057 1.219,0.033 1.542,-0.365 1.558,-1.562 0.051,-4.041 0.1,-4.04 -3.995,-4.04 -2.283,0 -4.568,-0.061 -6.848,0.024 -1.229,0.045 -1.614,-0.38 -1.564,-1.589 0.086,-2.065 0.099,-4.14 -0.003,-6.204 -0.069,-1.376 0.328,-1.865 1.774,-1.819 3.35,0.105 6.706,-0.013 10.058,0.056 1.28,0.027 1.889,-0.17 1.875,-1.7 -0.035,-3.899 0.05,-3.9 -3.913,-3.9 -4.923,0 -9.847,0.062 -14.767,-0.036 -1.552,-0.031 -2.081,0.316 -2.043,1.976 0.117,5.133 0.043,10.271 0.043,15.407"
         id="path166"
         style="fill:#047dc3;fill-opacity:1;fill-rule:evenodd;stroke:none" /><path
         d="m 533.284,556.4297 c 0,-5.204 -0.028,-10.41 0.022,-15.613 0.011,-1.144 -0.221,-1.587 -1.501,-1.618 -5.622,-0.139 -5.621,-0.187 -5.621,5.442 0,9.126 0.037,18.252 -0.035,27.377 -0.012,1.56 0.336,2.062 1.989,2.036 5.144,-0.081 5.146,-0.002 5.146,-5.218 l 0,-12.406 z"
         id="path170"
         style="fill:#047dc3;fill-opacity:1;fill-rule:evenodd;stroke:none" /><path
         d="m 498.825,440.5703 c 0,-5.134 -0.054,-10.27 0.032,-15.403 0.026,-1.526 -0.286,-2.1 -1.974,-2.076 -5.09,0.073 -5.091,-0.009 -5.091,5.12 0,9.199 0.034,18.399 -0.033,27.599 -0.012,1.528 0.282,2.101 1.967,2.08 5.098,-0.062 5.099,0.017 5.099,-5.125 l 0,-12.195 z"
         id="path174"
         style="fill:#047dc3;fill-opacity:1;fill-rule:evenodd;stroke:none" /><path
         d="m 699.9979,556.5752 c -10e-4,-5.135 -0.045,-10.27 0.028,-15.403 0.02,-1.394 -0.212,-1.987 -1.815,-1.978 -5.206,0.027 -5.206,-0.045 -5.206,5.189 0,9.2 0.031,18.4 -0.031,27.599 -0.011,1.486 0.198,2.105 1.925,2.073 5.097,-0.091 5.099,-0.002 5.099,-5.071 l 0,-12.409 z"
         id="path178"
         style="fill:#017cc2;fill-opacity:1;fill-rule:evenodd;stroke:none" /></g></g></svg>