<?xml version="1.0" encoding="UTF-8" standalone="no"?>
<!-- Created with Inkscape (http://www.inkscape.org/) -->

<svg
   xmlns:dc="http://purl.org/dc/elements/1.1/"
   xmlns:cc="http://creativecommons.org/ns#"
   xmlns:rdf="http://www.w3.org/1999/02/22-rdf-syntax-ns#"
   xmlns:svg="http://www.w3.org/2000/svg"
   xmlns="http://www.w3.org/2000/svg"
   version="1.1"
   width="792pt"
   height="612pt"
   id="svg2384">
  <defs
     id="defs2386" />
  <metadata
     id="metadata2390">
    <rdf:RDF>
      <cc:Work
         rdf:about="">
        <dc:format>image/svg+xml</dc:format>
        <dc:type
           rdf:resource="http://purl.org/dc/dcmitype/StillImage" />
        <dc:title></dc:title>
      </cc:Work>
    </rdf:RDF>
  </metadata>
  <g
     id="layer1">
    <g
       transform="matrix(3.5420838,0,0,3.5420838,-698.35048,-1062.9522)"
       id="g3229">
      <path
         d="m 272.93885,379.86335 c -20.5257,1.47389 -20.94022,2.78033 -31.82696,5.38894 -10.95874,2.62586 -23.04218,12.90078 -23.04218,12.90078 -5.06655,3.54236 -8.69064,15.66195 -7.03451,21.10352 1.62664,5.34468 6.33564,11.19926 11.25521,14.06901 6.33564,3.69579 14.86517,5.67616 22.51042,5.62761 8.37275,-0.0515 16.70426,-0.15052 24.68358,-0.38521 7.96556,-0.23428 15.17862,-1.02169 23.15106,-1.02169"
         id="path2453"
         style="opacity:0.0995475;fill:none;stroke:#000000;stroke-width:20;stroke-linecap:round;stroke-linejoin:miter;stroke-miterlimit:4;stroke-opacity:1;stroke-dasharray:none" />
      <path
         d="m 304.38238,377.41299 c 0,0 3.01562,-3.06385 4.34216,-4.34216 1.05415,-1.01583 2.64589,-2.18989 3.5759,-3.32048 1.20228,-1.46158 2.26951,-3.78995 3.32048,-5.36384 1.67692,-2.51128 4.41495,-5.53004 5.87469,-8.17348 1.27941,-2.31688 2.34274,-5.71404 3.32047,-8.17348 1.09342,-2.75043 2.45089,-6.45751 3.5759,-9.19517 0.95227,-2.31731 2.22144,-5.41123 3.32048,-7.66264 0.84237,-1.72562 2.07173,-3.97589 3.06505,-5.61927 0.71458,-1.18222 1.72007,-2.7302 2.55422,-3.83132 0.42659,-0.56312 0.94258,-1.39929 1.53252,-1.78794 1.07265,-0.70665 2.81695,-1.08333 4.08674,-1.27711 0.98474,-0.15028 2.32652,-0.066 3.32048,0 1.15702,0.0768 2.76955,0.0448 3.83132,0.51084 1.096,0.48111 2.40184,1.55781 3.06506,2.55421 0.5775,0.86761 0.70361,2.32797 1.02168,3.32048 0.44369,1.38453 1.01074,3.24056 1.53253,4.59758 0.48028,1.24907 1.34608,2.82357 1.78795,4.08674 0.39278,1.12284 0.68799,2.68952 1.02168,3.83132 0.49624,1.69803 1.29631,3.9199 1.78795,5.61927 0.50618,1.74964 1.03471,4.12265 1.53253,5.87469 0.56972,2.00509 1.41792,4.65253 2.04337,6.64095 0.67622,2.14981 1.50499,5.04258 2.29879,7.1518 0.88246,2.34478 2.38227,5.3396 3.32048,7.66264 0.49034,1.21411 0.97075,2.90398 1.53252,4.08674 0.45672,0.96157 1.0499,2.29791 1.78795,3.06505 0.69268,0.71998 1.88516,1.40911 2.80964,1.78795 1.01519,0.41601 2.47896,0.74629 3.5759,0.76627 1.32256,0.0241 3.16889,-0.1554 4.34216,-0.76627 0.38447,-0.20018 0.75492,-0.68002 1.02168,-1.02168 0.54994,-0.70435 1.10252,-1.77087 1.53253,-2.55422 0.65961,-1.20159 1.45836,-2.84711 2.04337,-4.08674 0.64418,-1.365 1.48526,-3.19519 2.04337,-4.59758 0.5108,-1.28349 1.05002,-3.04777 1.53253,-4.34216 0.80517,-2.15998 1.90241,-5.03266 2.80963,-7.1518 0.93097,-2.17461 2.447,-4.95346 3.32048,-7.15179 0.44738,-1.12594 0.85226,-2.69668 1.2771,-3.83132 0.69861,-1.86579 1.69776,-4.33131 2.55422,-6.13011 0.48636,-1.0215 1.27554,-2.31179 1.78795,-3.32048 0.8848,-1.74174 1.85558,-4.16989 2.80963,-5.87469 0.75772,-1.35396 1.8342,-3.13556 2.80963,-4.34216 0.7494,-0.927 1.73882,-2.28591 2.80964,-2.80963 1.10993,-0.54285 2.85356,-0.43407 4.08674,-0.51085 0.99422,-0.0619 2.35885,-0.25997 3.32047,0 1.02764,0.27782 2.22196,1.13802 3.06506,1.78795 0.60077,0.46313 1.26585,1.23765 1.78795,1.78795 0.70954,0.74787 1.72977,1.69458 2.29879,2.55422 0.70011,1.05767 1.25399,2.68079 1.78795,3.83131 0.46186,0.99517 1.14683,2.29339 1.53253,3.32048 0.47735,1.27115 0.81249,3.0663 1.2771,4.34216 0.45791,1.25744 1.29837,2.84129 1.78795,4.08674 0.59402,1.51112 1.20444,3.59322 1.78795,5.10843 0.5677,1.47416 1.46366,3.38352 2.04337,4.853 0.56939,1.44332 1.34124,3.36714 1.78795,4.85301 0.38528,1.28156 0.57553,3.0805 1.02169,4.34216 0.76556,2.16486 2.20749,4.8879 3.32047,6.89637 0.83464,1.50617 2.08131,3.43971 3.06506,4.85301 0.93685,1.34592 2.3143,3.04724 3.32047,4.34216 1.13812,1.46473 2.63202,3.43793 3.83132,4.853 0.73651,0.86901 1.76812,1.98522 2.55422,2.80964 0.97216,1.01956 2.17763,2.49676 3.32047,3.32047 1.112,0.80148 4.08674,2.04337 4.08674,2.04337"
         id="path3225"
         style="opacity:0.0995475;fill:none;stroke:#000000;stroke-width:20;stroke-linecap:round;stroke-linejoin:miter;stroke-miterlimit:4;stroke-opacity:1;stroke-dasharray:none" />
      <path
         d="m 246.65718,489.28751 c 0,0 4.41757,1.07703 6.64096,1.78796 1.71788,0.54929 6.38553,1.02167 7.66263,1.27709 1.27711,0.25542 5.2617,0.94403 8.17348,1.02169 2.8352,0.0756 7.38184,1.19449 10.21685,1.2771 2.4522,0.0715 9.20502,0.60787 10.47227,0.76627 2.04337,0.25542 12.77106,0.51085 15.06985,1.02169 2.2988,0.51084 11.49397,0.25542 12.77107,0.51084 1.27711,0.25542 11.74938,0.25542 13.53733,0.51084 1.78795,0.25542 29.62887,-0.51084 30.90597,-0.25542 1.27711,0.25542 15.06986,-1.78795 16.34697,-1.53253 1.2771,0.25542 15.32527,-1.53253 16.60238,-1.53253 1.2771,0 16.34696,-2.55421 17.36864,-2.55421 1.02169,0 12.23479,-2.57117 17.36865,-4.08674 4.37008,-1.2901 10.24662,-3.03405 14.30359,-5.10842 2.64939,-1.35467 5.80548,-3.81734 8.17348,-5.61927 1.99094,-1.51502 4.10885,-2.60316 5.61927,-4.59759 1.57356,-2.07782 3.72668,-6.15161 4.34216,-8.68432 0.68853,-2.83338 0.61304,-6.81219 0.25542,-9.70601 -0.25566,-2.06873 -0.90046,-4.64234 -2.04337,-6.38553 -1.16207,-1.7724 -2.72347,-4.76205 -4.34216,-6.13011 -1.82835,-1.54526 -4.67463,-3.23221 -6.64095,-4.59758 -2.02978,-1.40943 -5.10859,-2.41342 -7.40722,-3.32048 -2.78348,-1.09839 -6.77448,-1.69853 -9.70601,-2.29879 -3.96162,-0.81118 -9.25547,-1.92434 -13.2819,-2.29879 -5.41764,-0.50383 -12.1832,-0.47253 -17.62407,-0.51084 -4.82735,-0.034 -11.52014,-0.17674 -16.34696,-0.25542 -7.05244,-0.11496 -16.70175,-0.14048 -23.75418,-0.25543 -3.60097,-0.0587 -8.40388,-0.061 -12.0048,0 -4.52291,0.0766 -10.60406,-0.2097 -15.06985,0.51085 -2.68098,0.43256 -8.68433,2.55421 -8.68433,2.55421"
         id="path3227"
         style="opacity:0.0995475;fill:none;stroke:#000000;stroke-width:20;stroke-linecap:round;stroke-linejoin:miter;stroke-miterlimit:4;stroke-opacity:1;stroke-dasharray:none" />
    </g>
  </g>
</svg>
