<?xml version="1.0" encoding="UTF-8" standalone="no"?>
<!-- Created with Inkscape (http://www.inkscape.org/) -->

<svg
   xmlns:dc="http://purl.org/dc/elements/1.1/"
   xmlns:cc="http://creativecommons.org/ns#"
   xmlns:rdf="http://www.w3.org/1999/02/22-rdf-syntax-ns#"
   xmlns:svg="http://www.w3.org/2000/svg"
   xmlns="http://www.w3.org/2000/svg"
   version="1.1"
   width="314.94052"
   height="224.29291"
   id="svg2"
   xml:space="preserve"><metadata
     id="metadata8"><rdf:RDF><cc:Work
         rdf:about=""><dc:format>image/svg+xml</dc:format><dc:type
           rdf:resource="http://purl.org/dc/dcmitype/StillImage" /><dc:title></dc:title></cc:Work></rdf:RDF></metadata><defs
     id="defs6" /><path
     d="m 106.94625,77.23005 c -0.85875,0 -1.65,-0.05875 -2.43125,0.01 -7.01625,0.61875 -14.0275,1.3125 -20.95,2.64625 -10.455,2.01375 -20.675,4.7575 -29.7875,10.5575 -6.235,3.97 -11.3675,8.93625 -13.685,16.205 -2.53125,7.9425 -1.35625,14.98 4.7175,21.16375 7.43,7.5675 16.4675,11.695 26.71,13.56125 14.0475,2.56 28.06625,1.2 42.0925,-0.28875 2.1,-0.2225 3.7075,-1.035 5.1675,-2.42625 2.90375,-2.7675 4.83375,-6.12 6.19625,-9.865 0.54375,-1.495 0.0812,-1.6125 -1.27625,-1.495 -6.57125,0.56625 -13.1425,1.16625 -19.72625,1.515 -10.5075,0.555 -21.03,0.92 -31.47875,-0.81 -5.41875,-0.89875 -10.57875,-2.45125 -14.7825,-6.28625 -7.27,-6.63125 -5.79875,-17.58875 2.9575,-22.08125 5.49375,-2.8175 11.16375,-5.16 17.21,-6.455 7.14,-1.53 14.315,-2.90375 21.46125,-4.4125 1.155,-0.24375 2.46125,-0.15125 3.29125,-1.435 1.9975,-3.08625 3.84625,-6.20875 4.31375,-10.10375 m 12.02375,9.245 c 0.93625,0.5425 1.83375,0.37375 2.69,0.355 7.245,-0.1475 12.97875,-3.43125 17.7075,-8.685 6.1975,-6.88375 9.7875,-15.235 13.2175,-23.67625 1.80875,-4.45125 3.18375,-9.09125 5.49375,-13.3225 0.9825,-1.79875 2.27625,-3.485 4.73625,-3.35375 2.34,0.125 3.64125,1.5825 4.65375,3.50625 2.87125,5.455 5.0975,11.1725 7.06875,16.99875 2.73875,8.095 4.985,16.355 8.0925,24.32625 1.9475,4.995 6.45,8.06625 11.79,8.16875 5.37375,0.1025 9.02125,-2.38 11.27625,-7.70125 2.81625,-6.6425 5.55375,-13.3175 8.445,-19.9275 2.78125,-6.35875 4.885,-13.02625 8.3175,-19.08625 2.605,-4.6 4.76125,-4.63625 7.8475,-0.435 4.64875,6.3325 7.36125,13.59875 10.0325,20.87875 2.39375,6.52125 4.6675,13.0875 8.08,19.17875 4.5275,8.0775 10.85625,14.05875 19.79,17.0025 0.8025,0.26375 1.6175,0.8825 2.43625,-0.0563 2.07375,-2.375 3.9525,-4.8225 4.085,-8.18375 0.0487,-1.22 -0.30875,-1.9725 -1.46,-2.51625 -2.51,-1.185 -4.755,-2.79875 -6.8525,-4.6175 -6.7225,-5.83 -10.82375,-13.41375 -14.1225,-21.46625 -3.71125,-9.06 -7.12125,-18.245 -10.825,-27.31 -1.78875,-4.375 -4.5425,-8.155 -8.9075,-10.3125 -6.36875,-3.1475 -12.65875,-2.84375 -16.38375,4.68875 -3.75875,7.60125 -6.97125,15.4 -9.9575,23.31 -2.58125,6.83625 -5.265,13.62375 -8.64875,20.11375 -1.8025,3.45625 -4.44125,3.665 -6.76375,0.4775 -0.565,-0.7775 -0.96375,-1.70875 -1.295,-2.62 -0.88125,-2.42875 -1.7525,-4.86625 -2.50625,-7.33625 -2.75,-9.025 -5.38875,-18.08375 -8.19375,-27.09125 -1.72,-5.52 -4.13,-10.6325 -9.32125,-13.88875 -4.73125,-2.9675 -12.83375,-2.1425 -15.78625,4.22875 -3.07125,6.63 -5.9725,13.32625 -8.77875,20.065 -4.985,11.96625 -11.13875,23.1175 -21.28625,31.61875 -2.10875,1.7675 -3.81625,3.93625 -4.67125,6.66875 m 27.975,108.44625 c 38.38625,0 62.84125,-2.86375 88.76875,-9.12 10.89,-2.6275 21.05625,-6.5375 29.48625,-14.25125 13.415,-12.2775 12.1,-29.96625 -2.86875,-40.24625 -6.9525,-4.775 -14.6975,-7.09375 -22.78125,-8.685 -15.83875,-3.12 -31.87375,-3.465 -47.9425,-3.3 -15.16875,0.155 -30.27,1.3375 -45.33375,3.03875 -0.995,0.1125 -2.1725,-0.10875 -2.90375,0.99 -2.2175,3.33125 -4.81375,6.41625 -6.35875,10.18 -0.6925,1.6875 -0.6925,2.27 1.535,2.13375 18.68,-1.145 37.31875,-3.0025 56.04375,-3.3525 15.45625,-0.2875 30.84125,0.49375 46.01875,3.70375 6.0425,1.2775 11.52,3.89 14.82375,9.2275 5.64,9.10875 4.90125,18.3275 -6.78125,22.5375 -4.10125,1.4775 -8.23375,2.89875 -12.42625,4.09 -37.67,10.70875 -76.11625,11.5975 -114.83,8.91375 -15.12625,-1.04875 -30.165,-2.9075 -45.1725,-5.03625 -0.84375,-0.12 -1.75,-0.39875 -2.3975,0.60125 -1.45125,2.24375 -3,4.4225 -4.02375,6.92125 -0.73375,1.79 -0.38625,2.63 1.70625,3.0375 27.8925,5.43875 56.015,8.55875 75.4375,8.61625 M 199.74,0 c 2.855,1.17 5.8825,0.57375 8.81625,0.75125 12.63,0.7675 25.27625,1.25875 37.9125,1.94125 10.0025,0.54 19.845,2.04875 29.32,5.45375 18.8325,6.7675 29.55,20.54875 34.2925,39.57 2.6475,10.61875 3.4075,21.4475 3.955,32.3125 1.3725,27.27625 1.3875,54.53625 -1.3975,81.735 -0.955,9.335 -2.92625,18.47625 -6.95875,27.04375 -6.8175,14.48375 -18.9175,22.22625 -33.7975,26.42125 -9.7425,2.7475 -19.76375,3.76375 -29.77625,4.7625 -18.805,1.875 -37.6575,3.1375 -56.54375,3.8075 -30.40625,1.07875 -60.7775,0.38125 -91.11125,-1.99375 -14.925,-1.17 -29.885,-2.075 -44.60875,-4.95875 -10.59375,-2.07375 -20.63875,-5.61 -29.04375,-12.7275 C 10.74875,195.61125 6.24625,184.15 3.735,171.6625 1.6725,161.405 1.2,150.9825 0.5225,140.58 0.47,139.77125 1.01125,138.77875 0,138.15875 L 0,99.6025 C 0.8825,96.39 0.8975,93.17625 0,89.96375 L 0,86.75 c 1.11625,-3.845 0.78375,-7.8275 1.04125,-11.74875 0.60875,-9.26 1.4725,-18.47 3.77125,-27.5 C 9.055,30.845 17.82625,17.7425 33.85125,10.31375 42.76625,6.1825 52.23,4.1075 61.95625,3.23125 76.43125,1.9275 90.95875,1.47 105.4725,0.7675 108.86625,0.6025 112.33875,1.12875 115.6675,0 l 68.0075,0 c 4.105,0.87625 8.21125,0.89 12.31625,0 L 199.74,0 z"
     id="path38"
     style="opacity:0.1;fill:#000000;fill-opacity:1;fill-rule:evenodd;stroke:none" /></svg>