<?xml version="1.0" encoding="UTF-8" standalone="no"?>
<!-- Created with Inkscape (http://www.inkscape.org/) -->
<svg
   xmlns:dc="http://purl.org/dc/elements/1.1/"
   xmlns:cc="http://creativecommons.org/ns#"
   xmlns:rdf="http://www.w3.org/1999/02/22-rdf-syntax-ns#"
   xmlns:svg="http://www.w3.org/2000/svg"
   xmlns="http://www.w3.org/2000/svg"
   xmlns:sodipodi="http://sodipodi.sourceforge.net/DTD/sodipodi-0.dtd"
   xmlns:inkscape="http://www.inkscape.org/namespaces/inkscape"
   width="792pt"
   height="612pt"
   id="svg2384"
   sodipodi:version="0.32"
   inkscape:version="0.46"
   sodipodi:docname="csm_watermark.svg"
   inkscape:output_extension="org.inkscape.output.svg.inkscape">
  <defs
     id="defs2386">
    <inkscape:perspective
       sodipodi:type="inkscape:persp3d"
       inkscape:vp_x="0 : 382.5 : 1"
       inkscape:vp_y="0 : 1000 : 0"
       inkscape:vp_z="990 : 382.5 : 1"
       inkscape:persp3d-origin="495 : 255 : 1"
       id="perspective2393" />
  </defs>
  <sodipodi:namedview
     inkscape:document-units="in"
     pagecolor="#ffffff"
     bordercolor="#666666"
     borderopacity="1.0"
     inkscape:pageopacity="0.0"
     inkscape:pageshadow="2"
     inkscape:zoom="0.97777778"
     inkscape:cx="495"
     inkscape:cy="382.5"
     inkscape:current-layer="layer1"
     id="namedview2388"
     showgrid="false"
     inkscape:window-width="1399"
     inkscape:window-height="972"
     inkscape:window-x="1"
     inkscape:window-y="51" />
  <metadata
     id="metadata2390">
    <rdf:RDF>
      <cc:Work
         rdf:about="">
        <dc:format>image/svg+xml</dc:format>
        <dc:type
           rdf:resource="http://purl.org/dc/dcmitype/StillImage" />
      </cc:Work>
    </rdf:RDF>
  </metadata>
  <g
     inkscape:label="Layer 1"
     inkscape:groupmode="layer"
     id="layer1">
    <g
       id="g3229"
       transform="matrix(3.5420838,0,0,3.5420838,-698.35048,-1062.9522)">
      <path
         sodipodi:nodetypes="csssssss"
         id="path2453"
         d="M 272.93885,379.86335 C 252.41315,381.33724 251.99863,382.64368 241.11189,385.25229 C 230.15315,387.87815 218.06971,398.15307 218.06971,398.15307 C 213.00316,401.69543 209.37907,413.81502 211.0352,419.25659 C 212.66184,424.60127 217.37084,430.45585 222.29041,433.3256 C 228.62605,437.02139 237.15558,439.00176 244.80083,438.95321 C 253.17358,438.90167 261.50509,438.80269 269.48441,438.568 C 277.44997,438.33372 284.66303,437.54631 292.63547,437.54631"
         style="opacity:0.0995475;fill:none;fill-rule:evenodd;stroke:#000000;stroke-width:20;stroke-linecap:round;stroke-linejoin:miter;stroke-miterlimit:4;stroke-dasharray:none;stroke-opacity:1" />
      <path
         sodipodi:nodetypes="csssssssssssssssssssssssssssssssssssssssssssssssssssssssssssss"
         id="path3225"
         d="M 304.38238,377.41299 C 304.38238,377.41299 307.398,374.34914 308.72454,373.07083 C 309.77869,372.055 311.37043,370.88094 312.30044,369.75035 C 313.50272,368.28877 314.56995,365.9604 315.62092,364.38651 C 317.29784,361.87523 320.03587,358.85647 321.49561,356.21303 C 322.77502,353.89615 323.83835,350.49899 324.81608,348.03955 C 325.9095,345.28912 327.26697,341.58204 328.39198,338.84438 C 329.34425,336.52707 330.61342,333.43315 331.71246,331.18174 C 332.55483,329.45612 333.78419,327.20585 334.77751,325.56247 C 335.49209,324.38025 336.49758,322.83227 337.33173,321.73115 C 337.75832,321.16803 338.27431,320.33186 338.86425,319.94321 C 339.9369,319.23656 341.6812,318.85988 342.95099,318.6661 C 343.93573,318.51582 345.27751,318.60013 346.27147,318.6661 C 347.42849,318.74289 349.04102,318.71085 350.10279,319.17694 C 351.19879,319.65805 352.50463,320.73475 353.16785,321.73115 C 353.74535,322.59876 353.87146,324.05912 354.18953,325.05163 C 354.63322,326.43616 355.20027,328.29219 355.72206,329.64921 C 356.20234,330.89828 357.06814,332.47278 357.51001,333.73595 C 357.90279,334.85879 358.198,336.42547 358.53169,337.56727 C 359.02793,339.2653 359.828,341.48717 360.31964,343.18654 C 360.82582,344.93618 361.35435,347.30919 361.85217,349.06123 C 362.42189,351.06632 363.27009,353.71376 363.89554,355.70218 C 364.57176,357.85199 365.40053,360.74476 366.19433,362.85398 C 367.07679,365.19876 368.5766,368.19358 369.51481,370.51662 C 370.00515,371.73073 370.48556,373.4206 371.04733,374.60336 C 371.50405,375.56493 372.09723,376.90127 372.83528,377.66841 C 373.52796,378.38839 374.72044,379.07752 375.64492,379.45636 C 376.66011,379.87237 378.12388,380.20265 379.22082,380.22263 C 380.54338,380.24672 382.38971,380.06723 383.56298,379.45636 C 383.94745,379.25618 384.3179,378.77634 384.58466,378.43468 C 385.1346,377.73033 385.68718,376.66381 386.11719,375.88046 C 386.7768,374.67887 387.57555,373.03335 388.16056,371.79372 C 388.80474,370.42872 389.64582,368.59853 390.20393,367.19614 C 390.71473,365.91265 391.25395,364.14837 391.73646,362.85398 C 392.54163,360.694 393.63887,357.82132 394.54609,355.70218 C 395.47706,353.52757 396.99309,350.74872 397.86657,348.55039 C 398.31395,347.42445 398.71883,345.85371 399.14367,344.71907 C 399.84228,342.85328 400.84143,340.38776 401.69789,338.58896 C 402.18425,337.56746 402.97343,336.27717 403.48584,335.26848 C 404.37064,333.52674 405.34142,331.09859 406.29547,329.39379 C 407.05319,328.03983 408.12967,326.25823 409.1051,325.05163 C 409.8545,324.12463 410.84392,322.76572 411.91474,322.242 C 413.02467,321.69915 414.7683,321.80793 416.00148,321.73115 C 416.9957,321.66925 418.36033,321.47118 419.32195,321.73115 C 420.34959,322.00897 421.54391,322.86917 422.38701,323.5191 C 422.98778,323.98223 423.65286,324.75675 424.17496,325.30705 C 424.8845,326.05492 425.90473,327.00163 426.47375,327.86127 C 427.17386,328.91894 427.72774,330.54206 428.2617,331.69258 C 428.72356,332.68775 429.40853,333.98597 429.79423,335.01306 C 430.27158,336.28421 430.60672,338.07936 431.07133,339.35522 C 431.52924,340.61266 432.3697,342.19651 432.85928,343.44196 C 433.4533,344.95308 434.06372,347.03518 434.64723,348.55039 C 435.21493,350.02455 436.11089,351.93391 436.6906,353.40339 C 437.25999,354.84671 438.03184,356.77053 438.47855,358.2564 C 438.86383,359.53796 439.05408,361.3369 439.50024,362.59856 C 440.2658,364.76342 441.70773,367.48646 442.82071,369.49493 C 443.65535,371.0011 444.90202,372.93464 445.88577,374.34794 C 446.82262,375.69386 448.20007,377.39518 449.20624,378.6901 C 450.34436,380.15483 451.83826,382.12803 453.03756,383.5431 C 453.77407,384.41211 454.80568,385.52832 455.59178,386.35274 C 456.56394,387.3723 457.76941,388.8495 458.91225,389.67321 C 460.02425,390.47469 462.99899,391.71658 462.99899,391.71658"
         style="opacity:0.0995475;fill:none;fill-rule:evenodd;stroke:#000000;stroke-width:20;stroke-linecap:round;stroke-linejoin:miter;stroke-miterlimit:4;stroke-dasharray:none;stroke-opacity:1" />
      <path
         sodipodi:nodetypes="cssssssssssssssssssssssssssssss"
         id="path3227"
         d="M 246.65718,489.28751 C 246.65718,489.28751 251.07475,490.36454 253.29814,491.07547 C 255.01602,491.62476 259.68367,492.09714 260.96077,492.35256 C 262.23788,492.60798 266.22247,493.29659 269.13425,493.37425 C 271.96945,493.44987 276.51609,494.56874 279.3511,494.65135 C 281.8033,494.7228 288.55612,495.25922 289.82337,495.41762 C 291.86674,495.67304 302.59443,495.92847 304.89322,496.43931 C 307.19202,496.95015 316.38719,496.69473 317.66429,496.95015 C 318.9414,497.20557 329.41367,497.20557 331.20162,497.46099 C 332.98957,497.71641 360.83049,496.95015 362.10759,497.20557 C 363.3847,497.46099 377.17745,495.41762 378.45456,495.67304 C 379.73166,495.92846 393.77983,494.14051 395.05694,494.14051 C 396.33404,494.14051 411.4039,491.5863 412.42558,491.5863 C 413.44727,491.5863 424.66037,489.01513 429.79423,487.49956 C 434.16431,486.20946 440.04085,484.46551 444.09782,482.39114 C 446.74721,481.03647 449.9033,478.5738 452.2713,476.77187 C 454.26224,475.25685 456.38015,474.16871 457.89057,472.17428 C 459.46413,470.09646 461.61725,466.02267 462.23273,463.48996 C 462.92126,460.65658 462.84577,456.67777 462.48815,453.78395 C 462.23249,451.71522 461.58769,449.14161 460.44478,447.39842 C 459.28271,445.62602 457.72131,442.63637 456.10262,441.26831 C 454.27427,439.72305 451.42799,438.0361 449.46167,436.67073 C 447.43189,435.2613 444.35308,434.25731 442.05445,433.35025 C 439.27097,432.25186 435.27997,431.65172 432.34844,431.05146 C 428.38682,430.24028 423.09297,429.12712 419.06654,428.75267 C 413.6489,428.24884 406.88334,428.28014 401.44247,428.24183 C 396.61512,428.20783 389.92233,428.06509 385.09551,427.98641 C 378.04307,427.87145 368.39376,427.84593 361.34133,427.73098 C 357.74036,427.67228 352.93745,427.66996 349.33653,427.73098 C 344.81362,427.80762 338.73247,427.52128 334.26668,428.24183 C 331.5857,428.67439 325.58235,430.79604 325.58235,430.79604"
         style="opacity:0.0995475;fill:none;fill-rule:evenodd;stroke:#000000;stroke-width:20;stroke-linecap:round;stroke-linejoin:miter;stroke-miterlimit:4;stroke-dasharray:none;stroke-opacity:1" />
    </g>
  </g>
</svg>
